<svg xmlns:xlink="http://www.w3.org/1999/xlink" width="308" xmlns="http://www.w3.org/2000/svg" height="216" id="screenshot-7f93204e-4263-80d1-8002-7cbabc1bd192" viewBox="0 0 308 216" style="-webkit-print-color-adjust: exact;" fill="none" version="1.1"><g id="shape-7f93204e-4263-80d1-8002-7cbabc1bd192" rx="0" ry="0" style="fill: rgb(0, 0, 0);"><g id="shape-7f93204e-4263-80d1-8002-7cbabc1c6c5d"><g class="fills" id="fills-7f93204e-4263-80d1-8002-7cbabc1c6c5d"><path stroke="none" rx="0" ry="0" d="M56.613,56.599L0.000,113.125L0.000,136.043L0.000,158.888L56.833,158.888L113.667,158.888L113.667,187.444L113.667,216.000L141.900,216.000L170.133,216.000L170.133,164.746L170.133,113.492L113.593,113.345L56.980,113.125L113.300,56.526L169.547,0.000L141.460,0.000L113.300,0.000L56.613,56.599ZZ" style="fill: rgb(240, 240, 240);"/></g></g><g id="shape-7f93204e-4263-80d1-8002-7cbabc1cfd97"><g class="fills" id="fills-7f93204e-4263-80d1-8002-7cbabc1cfd97"><path stroke="none" rx="0" ry="0" d="M194.333,28.336L194.333,56.746L222.420,28.702C237.820,13.326,250.653,0.732,251.020,0.732C251.313,0.732,251.533,13.180,251.533,28.409L251.533,56.014L222.933,84.569L194.333,113.125L194.333,141.462L194.333,169.871L251.167,169.871L308.000,169.871L308.000,141.535L308.000,113.125L279.767,141.315L251.533,169.505L251.533,141.315L251.533,113.125L279.767,84.936L308.000,56.746L308.000,28.409L308.000,0.000L251.167,0.000L194.333,0.000L194.333,28.336ZZ" style="fill: rgb(240, 240, 240);"/></g></g></g></svg>
